<svg width="147" height="24" viewBox="0 0 147 24" fill="none" xmlns="http://www.w3.org/2000/svg">
<path d="M16.5166 7.90039L25.2334 9.16699L18.9248 15.3164L20.415 23.999L12.6162 19.9004L4.82031 23.999L6.30859 15.3164L0 9.16699L8.71875 7.90039L12.6162 0L16.5166 7.90039ZM46.7109 7.90039L55.4297 9.16699L49.1211 15.3164L50.6084 23.999L42.8125 19.9004L35.0146 23.999L36.5049 15.3164L30.1963 9.16699L38.9131 7.90039L42.8125 0L46.7109 7.90039ZM76.9043 7.90039L85.623 9.16699L79.3154 15.3164L80.8047 23.999L73.0068 19.9004L65.209 23.999L66.6982 15.3164L60.3906 9.16699L69.1094 7.90039L73.0068 0L76.9043 7.90039ZM107.101 7.90039L115.817 9.16699L109.509 15.3164L110.999 23.999L103.201 19.9004L95.4053 23.999L96.8926 15.3164L90.584 9.16699L99.3027 7.90039L103.201 0L107.101 7.90039ZM137.295 7.90039L146.014 9.16699L139.705 15.3164L141.192 23.999L133.397 19.9004L125.599 23.999L127.089 15.3164L120.78 9.16699L129.497 7.90039L133.397 0L137.295 7.90039Z" fill="#4D4D4D"/>
</svg>
