<svg width="131" height="56" viewBox="0 0 131 56" fill="none" xmlns="http://www.w3.org/2000/svg">
<path d="M12.5 23.0601C12.5 24.0332 11.3067 24.5017 10.6445 23.7886L9.96777 23.0601L10.6445 22.3315C11.3067 21.6184 12.5 22.0869 12.5 23.0601ZM13.5 23.0601C13.5 21.1781 11.1928 20.272 9.91211 21.6509L9.28516 22.3247L6.52637 19.353C4.54226 17.2161 5.94801 13.7834 8.77441 13.5708L9.05273 13.5601H16C17.933 13.5601 19.5 15.1271 19.5 17.0601V29.0601C19.5 30.9931 17.933 32.5601 16 32.5601H9.05273C6.04254 32.5601 4.47821 28.973 6.52637 26.7671L9.28516 23.7944L9.91211 24.4692C11.1928 25.8481 13.5 24.942 13.5 23.0601Z" stroke="#CE3227"/>
<g filter="url(#filter0_d_28_147)">
<path d="M34.4886 30.2201C33.4219 30.2201 32.4019 30.0601 31.4286 29.7401C30.4553 29.4067 29.6886 28.9801 29.1286 28.4601L29.8686 26.9001C30.4019 27.3667 31.0819 27.7534 31.9086 28.0601C32.7353 28.3667 33.5953 28.5201 34.4886 28.5201C35.3019 28.5201 35.9619 28.4267 36.4686 28.2401C36.9753 28.0534 37.3486 27.8001 37.5886 27.4801C37.8286 27.1467 37.9486 26.7734 37.9486 26.3601C37.9486 25.8801 37.7886 25.4934 37.4686 25.2001C37.1619 24.9067 36.7553 24.6734 36.2486 24.5001C35.7553 24.3134 35.2086 24.1534 34.6086 24.0201C34.0086 23.8867 33.4019 23.7334 32.7886 23.5601C32.1886 23.3734 31.6353 23.1401 31.1286 22.8601C30.6353 22.5801 30.2353 22.2067 29.9286 21.7401C29.6219 21.2601 29.4686 20.6467 29.4686 19.9001C29.4686 19.1801 29.6553 18.5201 30.0286 17.9201C30.4153 17.3067 31.0019 16.8201 31.7886 16.4601C32.5886 16.0867 33.6019 15.9001 34.8286 15.9001C35.6419 15.9001 36.4486 16.0067 37.2486 16.2201C38.0486 16.4334 38.7419 16.7401 39.3286 17.1401L38.6686 18.7401C38.0686 18.3401 37.4353 18.0534 36.7686 17.8801C36.1019 17.6934 35.4553 17.6001 34.8286 17.6001C34.0419 17.6001 33.3953 17.7001 32.8886 17.9001C32.3819 18.1001 32.0086 18.3667 31.7686 18.7001C31.5419 19.0334 31.4286 19.4067 31.4286 19.8201C31.4286 20.3134 31.5819 20.7067 31.8886 21.0001C32.2086 21.2934 32.6153 21.5267 33.1086 21.7001C33.6153 21.8734 34.1686 22.0334 34.7686 22.1801C35.3686 22.3134 35.9686 22.4667 36.5686 22.6401C37.1819 22.8134 37.7353 23.0401 38.2286 23.3201C38.7353 23.6001 39.1419 23.9734 39.4486 24.4401C39.7553 24.9067 39.9086 25.5067 39.9086 26.2401C39.9086 26.9467 39.7153 27.6067 39.3286 28.2201C38.9419 28.8201 38.3419 29.3067 37.5286 29.6801C36.7286 30.0401 35.7153 30.2201 34.4886 30.2201ZM43.0105 34.0601C42.5038 34.0601 42.0105 33.9734 41.5305 33.8001C41.0505 33.6401 40.6371 33.4001 40.2905 33.0801L41.1105 31.6401C41.3771 31.8934 41.6705 32.0867 41.9905 32.2201C42.3105 32.3534 42.6505 32.4201 43.0105 32.4201C43.4771 32.4201 43.8638 32.3001 44.1705 32.0601C44.4771 31.8201 44.7638 31.3934 45.0305 30.7801L45.6905 29.3201L45.8905 29.0801L50.0505 19.4601H51.9305L46.7905 31.1201C46.4838 31.8667 46.1371 32.4534 45.7505 32.8801C45.3771 33.3067 44.9638 33.6067 44.5105 33.7801C44.0571 33.9667 43.5571 34.0601 43.0105 34.0601ZM45.5305 30.4001L40.6905 19.4601H42.6905L46.8105 28.9001L45.5305 30.4001ZM53.7223 30.0601V19.4601H55.5623V22.3201L55.2623 21.5601C55.609 20.8667 56.1423 20.3267 56.8623 19.9401C57.5823 19.5534 58.4223 19.3601 59.3823 19.3601C60.249 19.3601 61.009 19.5267 61.6623 19.8601C62.329 20.1934 62.849 20.7001 63.2223 21.3801C63.5957 22.0601 63.7823 22.9201 63.7823 23.9601V30.0601H61.8623V24.1801C61.8623 23.1534 61.609 22.3801 61.1023 21.8601C60.609 21.3401 59.909 21.0801 59.0023 21.0801C58.3223 21.0801 57.729 21.2134 57.2223 21.4801C56.7157 21.7467 56.3223 22.1401 56.0423 22.6601C55.7757 23.1801 55.6423 23.8267 55.6423 24.6001V30.0601H53.7223ZM72.0556 30.1801C70.9223 30.1801 69.9223 29.9467 69.0556 29.4801C68.2023 29.0134 67.5356 28.3734 67.0556 27.5601C66.589 26.7467 66.3556 25.8134 66.3556 24.7601C66.3556 23.7067 66.5823 22.7734 67.0356 21.9601C67.5023 21.1467 68.1356 20.5134 68.9356 20.0601C69.749 19.5934 70.6623 19.3601 71.6756 19.3601C72.7023 19.3601 73.609 19.5867 74.3956 20.0401C75.1823 20.4934 75.7956 21.1334 76.2356 21.9601C76.689 22.7734 76.9156 23.7267 76.9156 24.8201C76.9156 24.9001 76.909 24.9934 76.8956 25.1001C76.8956 25.2067 76.889 25.3067 76.8756 25.4001H67.8556V24.0201H75.8756L75.0956 24.5001C75.109 23.8201 74.969 23.2134 74.6756 22.6801C74.3823 22.1467 73.9756 21.7334 73.4556 21.4401C72.949 21.1334 72.3556 20.9801 71.6756 20.9801C71.009 20.9801 70.4156 21.1334 69.8956 21.4401C69.3756 21.7334 68.969 22.1534 68.6756 22.7001C68.3823 23.2334 68.2356 23.8467 68.2356 24.5401V24.8601C68.2356 25.5667 68.3956 26.2001 68.7156 26.7601C69.049 27.3067 69.509 27.7334 70.0956 28.0401C70.6823 28.3467 71.3556 28.5001 72.1156 28.5001C72.7423 28.5001 73.309 28.3934 73.8156 28.1801C74.3356 27.9667 74.789 27.6467 75.1756 27.2201L76.2356 28.4601C75.7556 29.0201 75.1556 29.4467 74.4356 29.7401C73.729 30.0334 72.9356 30.1801 72.0556 30.1801ZM79.5817 30.0601V19.4601H81.4217V22.3401L81.2417 21.6201C81.5351 20.8867 82.0284 20.3267 82.7217 19.9401C83.4151 19.5534 84.2684 19.3601 85.2817 19.3601V21.2201C85.2017 21.2067 85.1217 21.2001 85.0417 21.2001C84.9751 21.2001 84.9084 21.2001 84.8417 21.2001C83.8151 21.2001 83.0017 21.5067 82.4017 22.1201C81.8017 22.7334 81.5017 23.6201 81.5017 24.7801V30.0601H79.5817ZM92.1905 34.0601C91.2171 34.0601 90.2705 33.9201 89.3505 33.6401C88.4438 33.3734 87.7038 32.9867 87.1305 32.4801L88.0505 31.0001C88.5438 31.4267 89.1505 31.7601 89.8705 32.0001C90.5905 32.2534 91.3438 32.3801 92.1305 32.3801C93.3838 32.3801 94.3038 32.0867 94.8905 31.5001C95.4771 30.9134 95.7705 30.0201 95.7705 28.8201V26.5801L95.9705 24.4801L95.8705 22.3601V19.4601H97.6905V28.6201C97.6905 30.4867 97.2238 31.8601 96.2905 32.7401C95.3571 33.6201 93.9905 34.0601 92.1905 34.0601ZM91.9505 29.6201C90.9238 29.6201 90.0038 29.4067 89.1905 28.9801C88.3905 28.5401 87.7505 27.9334 87.2705 27.1601C86.8038 26.3867 86.5705 25.4934 86.5705 24.4801C86.5705 23.4534 86.8038 22.5601 87.2705 21.8001C87.7505 21.0267 88.3905 20.4267 89.1905 20.0001C90.0038 19.5734 90.9238 19.3601 91.9505 19.3601C92.8571 19.3601 93.6838 19.5467 94.4305 19.9201C95.1771 20.2801 95.7705 20.8401 96.2105 21.6001C96.6638 22.3601 96.8905 23.3201 96.8905 24.4801C96.8905 25.6267 96.6638 26.5801 96.2105 27.3401C95.7705 28.1001 95.1771 28.6734 94.4305 29.0601C93.6838 29.4334 92.8571 29.6201 91.9505 29.6201ZM92.1705 27.9401C92.8771 27.9401 93.5038 27.7934 94.0505 27.5001C94.5971 27.2067 95.0238 26.8001 95.3305 26.2801C95.6505 25.7601 95.8105 25.1601 95.8105 24.4801C95.8105 23.8001 95.6505 23.2001 95.3305 22.6801C95.0238 22.1601 94.5971 21.7601 94.0505 21.4801C93.5038 21.1867 92.8771 21.0401 92.1705 21.0401C91.4638 21.0401 90.8305 21.1867 90.2705 21.4801C89.7238 21.7601 89.2905 22.1601 88.9705 22.6801C88.6638 23.2001 88.5105 23.8001 88.5105 24.4801C88.5105 25.1601 88.6638 25.7601 88.9705 26.2801C89.2905 26.8001 89.7238 27.2067 90.2705 27.5001C90.8305 27.7934 91.4638 27.9401 92.1705 27.9401ZM101.8 34.0601C101.293 34.0601 100.8 33.9734 100.32 33.8001C99.8395 33.6401 99.4262 33.4001 99.0795 33.0801L99.8995 31.6401C100.166 31.8934 100.46 32.0867 100.78 32.2201C101.1 32.3534 101.44 32.4201 101.8 32.4201C102.266 32.4201 102.653 32.3001 102.96 32.0601C103.266 31.8201 103.553 31.3934 103.82 30.7801L104.48 29.3201L104.68 29.0801L108.84 19.4601H110.72L105.58 31.1201C105.273 31.8667 104.926 32.4534 104.54 32.8801C104.166 33.3067 103.753 33.6067 103.3 33.7801C102.846 33.9667 102.346 34.0601 101.8 34.0601ZM104.32 30.4001L99.4795 19.4601H101.48L105.6 28.9001L104.32 30.4001Z" fill="#CE3227"/>
</g>
<defs>
<filter id="filter0_d_28_147" x="9.22859" y="0.000146866" width="121.391" height="57.9599" filterUnits="userSpaceOnUse" color-interpolation-filters="sRGB">
<feFlood flood-opacity="0" result="BackgroundImageFix"/>
<feColorMatrix in="SourceAlpha" type="matrix" values="0 0 0 0 0 0 0 0 0 0 0 0 0 0 0 0 0 0 127 0" result="hardAlpha"/>
<feOffset dy="4"/>
<feGaussianBlur stdDeviation="9.95"/>
<feComposite in2="hardAlpha" operator="out"/>
<feColorMatrix type="matrix" values="0 0 0 0 0.807843 0 0 0 0 0.196078 0 0 0 0 0.152941 0 0 0 0.35 0"/>
<feBlend mode="normal" in2="BackgroundImageFix" result="effect1_dropShadow_28_147"/>
<feBlend mode="normal" in="SourceGraphic" in2="effect1_dropShadow_28_147" result="shape"/>
</filter>
</defs>
</svg>
